<?xml version="1.0" encoding="UTF-8"?>
<svg width="360px" height="174px" viewBox="0 0 360 174" version="1.1" xmlns="http://www.w3.org/2000/svg" xmlns:xlink="http://www.w3.org/1999/xlink">
    <!-- Generator: Sketch 61.2 (89653) - https://sketch.com -->
    <title>horizontal_colored(dark)</title>
    <desc>Created with Sketch.</desc>
    <g id="horizontal_colored(dark)" stroke="none" stroke-width="1" fill="none" fill-rule="evenodd">
        <g id="colored_dark" transform="translate(58.000000, 58.000000)">
            <g id="logo">
                <path d="M64.9363,13.9951 C63.2663,15.7561 60.6163,18.2961 56.3763,21.9351 C55.4163,22.7751 54.6263,23.8251 54.0963,24.9751 C53.4063,26.5251 53.4563,29.5861 53.6063,34.8651 C53.7963,41.3651 54.0463,50.1451 51.8663,54.4261 C36.3063,54.3761 23.5663,54.2751 13.9563,54.1261 C13.8463,52.9661 13.8763,50.9351 14.7563,48.4951 C15.9863,45.1051 18.4763,41.9751 22.1563,39.1761 C23.5463,38.1151 25.0963,37.1151 26.7563,36.1951 C26.9263,36.1051 27.0863,36.0251 27.2563,35.9451 C28.5363,35.3651 35.0563,32.0561 37.6363,24.4551 C38.3563,22.3061 38.4963,19.9261 38.0263,17.5651 C37.9663,17.2561 37.9063,16.9051 37.8363,16.5561 C37.6263,15.4051 37.3963,14.2051 37.1563,13.4661 C36.4763,11.3651 36.8163,7.8251 37.2463,5.3651 C38.9963,7.7851 41.4963,10.7851 43.4563,11.3061 C45.1563,11.7561 46.8963,11.2751 48.9063,10.7251 C50.4063,10.3061 52.1163,9.8361 54.1563,9.6551 C60.7163,9.0861 66.2363,9.9051 67.5563,10.7751 C67.2763,11.2751 66.6063,12.2451 64.9363,13.9951 M12.9863,45.1051 C12.8863,45.2961 12.7963,45.4751 12.7063,45.6651 C12.6963,45.6761 12.6863,45.6951 12.6863,45.7051 C12.6063,45.8651 12.5263,46.0351 12.4563,46.2051 C12.3263,46.4751 12.2163,46.7561 12.1063,47.0351 C12.0163,47.0861 11.9463,47.1451 11.8663,47.1951 C9.7463,45.7561 6.7863,43.4951 5.9363,42.1151 L5.7963,41.8951 C1.4163,34.9151 2.1363,26.6151 7.9163,17.2251 C10.3763,13.2161 13.4163,9.9151 15.5863,7.9451 C14.6263,12.2561 15.0363,17.1051 16.8263,21.4751 C17.2763,22.5861 17.8263,23.6261 18.3463,24.6261 C20.0263,27.8151 21.6163,30.8251 20.1563,36.4151 C20.0963,36.6361 20.0363,36.8651 19.9663,37.0751 C18.5463,38.1851 17.2863,39.3551 16.1963,40.5651 C15.8263,40.9751 15.4863,41.3761 15.1563,41.7961 C14.6963,42.3761 14.2763,42.9661 13.8863,43.5651 C13.5663,44.0651 13.2563,44.5861 12.9863,45.1051 M36.1063,0.5061 C36.7863,0.2351 37.6063,0.5161 37.9963,1.1261 C39.0363,2.7561 40.3063,4.5061 41.4563,5.8761 C42.6163,7.2561 43.6463,8.2561 44.2163,8.4051 C45.1463,8.6551 46.4563,8.2851 48.1063,7.8361 C49.6563,7.4051 51.5863,6.8761 53.8963,6.6761 C58.2863,6.2851 64.9763,6.3761 68.3963,7.8861 C68.8363,7.4661 69.4463,7.2051 70.1163,7.2051 C71.5063,7.2051 72.6163,8.3251 72.6163,9.7051 C72.6163,11.0651 71.5363,12.1761 70.1763,12.2051 C69.0863,14.1261 66.0763,17.5651 58.3363,24.2161 C57.6963,24.7661 57.1763,25.4551 56.8363,26.2161 C56.3863,27.2051 56.5063,31.2251 56.6063,34.7751 C56.8263,42.4451 57.1063,51.9951 53.9863,56.7561 C53.7063,57.1761 53.2363,57.4351 52.7363,57.4351 L52.7363,57.4351 L52.7263,57.4351 C36.0763,57.3761 22.5863,57.2751 12.6563,57.1051 C11.9963,57.0961 11.4163,56.6551 11.2363,56.0251 C11.2063,55.8951 10.5663,53.6361 11.1663,50.3151 C11.1263,50.2961 11.0863,50.2751 11.0463,50.2451 C10.4363,49.8551 5.0163,46.3361 3.3763,43.6951 L3.3763,43.6951 L3.2563,43.4851 C-3.0137,33.4851 0.9363,22.8251 5.3563,15.6451 C8.4763,10.5861 16.1263,1.8061 18.7763,3.1851 C18.9263,3.2661 20.1963,3.9851 19.4363,5.7451 C17.5663,10.0461 17.6263,15.5061 19.6063,20.3461 C20.0063,21.3251 20.4863,22.2451 21.0063,23.2251 C22.5463,26.1551 24.2663,29.4151 23.5763,34.5861 C24.1363,34.2351 24.7163,33.9051 25.3163,33.5751 C25.5463,33.4451 25.7863,33.3251 26.0263,33.2161 C27.0963,32.7251 32.6063,29.9261 34.7963,23.4951 C35.3463,21.8461 35.4463,19.9951 35.0863,18.1451 C35.0263,17.8251 34.9563,17.4751 34.8863,17.1051 C34.6963,16.0961 34.4863,14.9451 34.3063,14.3951 C33.1763,10.9261 34.1263,1.3151 36.1063,0.5061 Z M56.6865,12.6275 C50.9065,12.4175 48.6745,14.8355 48.5815,14.9395 C48.2145,15.3445 48.2455,15.9635 48.6455,16.3365 C48.8365,16.5145 49.0805,16.6035 49.3245,16.6035 C49.5905,16.6035 49.8555,16.4995 50.0535,16.2935 C50.0705,16.2755 51.8675,14.4815 56.6185,14.6255 C57.1885,14.6595 57.6345,14.2125 57.6525,13.6605 C57.6705,13.1085 57.2385,12.6455 56.6865,12.6275 Z" id="Fill-7" fill="#FFFFFF"></path>
                <path d="M53.5764,46.2256 C53.0364,47.3556 52.3864,48.0156 51.6164,48.2046 C48.9564,48.8756 43.9564,47.5356 36.6164,44.2046 L48.1264,29.8156 C48.6864,29.8456 49.2664,29.8556 49.8664,29.8556 C51.0264,29.8556 52.2464,29.8056 53.5164,29.7156 C53.5064,31.1256 53.5564,32.8356 53.6064,34.8656 C53.7064,38.3456 53.8264,42.4856 53.5764,46.2256" id="Fill-1" fill="#FF0D0D"></path>
                <path d="M53.5364,28.7051 C53.5364,28.8651 53.5264,29.0351 53.5264,29.2051 C53.5164,29.3651 53.5164,29.5461 53.5164,29.7161 C52.2464,29.8061 51.0264,29.8551 49.8664,29.8551 C49.2664,29.8551 48.6864,29.8461 48.1264,29.8151 C42.8464,29.5961 38.9564,28.3061 36.9864,26.0961 C37.1464,25.7561 37.2864,25.4151 37.4264,25.0561 C39.5664,27.9551 45.5264,29.3151 53.5364,28.7051" id="Fill-5" fill="#BEBEBE"></path>
            </g>
            <g id="type" transform="translate(80.218746, 10.242267)" fill-rule="nonzero">
                <path d="M5.85936941,37.7929327 L5.85936941,22.3241975 C5.85936941,19.8632623 6.52343098,18.1054515 7.85155501,17.050765 C9.21874091,15.9960785 10.7031151,15.4687352 12.3046758,15.4687352 C13.8671746,15.4687352 15.1757668,15.9960785 16.2304533,17.050765 C17.2851398,18.1054515 17.812483,19.8632623 17.812483,22.3241975 L17.812483,37.7929327 L23.6718524,37.7929327 L23.6718524,22.3241975 C23.6718524,19.8632623 24.3554458,18.1054515 25.7226317,17.050765 C27.0898176,15.9960785 28.55466,15.4687352 30.1171588,15.4687352 C31.7187195,15.4687352 33.0468435,15.9960785 34.10153,17.050765 C35.1562165,18.1054515 35.6835597,19.8632623 35.6835597,22.3241975 L35.6835597,37.7929327 L41.5429291,37.7929327 L41.5429291,22.3241975 C41.5429291,18.3007635 40.6640237,15.3515479 38.9062129,13.4765496 C37.1484021,11.6015514 34.7265297,10.6640523 31.6405948,10.6640523 C28.3984107,10.6640523 25.7812254,11.6210824 23.7890398,13.5351433 C23.2337927,14.0792852 22.7574704,14.7055089 22.3600729,15.4138135 C21.9947376,14.6747905 21.5530926,14.0290359 21.0351362,13.4765496 C19.2773254,11.6015514 16.855453,10.6640523 13.7695181,10.6640523 C10.917958,10.6640523 8.5937421,11.6210824 6.79686852,13.5351433 C6.28675308,14.0669659 5.84750512,14.6771956 5.47912552,15.3658324 C5.37459636,13.50802 5.28650107,12.0774786 5.21483878,11.0742082 L-2.84217094e-14,11.0742082 L-2.84217094e-14,37.7929327 L5.85936941,37.7929327 Z M55.429682,37.7929327 L55.429682,11.0742082 L49.5703126,11.0742082 L49.5703126,37.7929327 L55.429682,37.7929327 Z M74.0038965,38.3788696 C75.7617073,38.3788696 77.5976427,38.1444949 79.5117037,37.6757453 C81.3867019,37.167933 82.9296689,36.3476213 84.1406056,35.2148102 C84.8046671,34.5898105 85.3320104,33.8476243 85.7226353,32.9882498 C86.1132602,32.1679381 86.3085722,31.210908 86.3085722,30.1171588 C86.3085722,28.5155981 85.9374791,27.2265368 85.195292,26.249975 C84.4921677,25.2734131 83.5741995,24.5116951 82.4413884,23.9648209 C81.5038893,23.4960713 80.5077965,23.1445092 79.45311,22.9101344 C78.3593608,22.6366969 77.2656124,22.4023221 76.1718632,22.2070101 C74.1406148,21.8945107 72.3437421,21.5234167 70.7812433,21.0937299 C69.2187445,20.703105 68.4374955,19.8437314 68.4374955,18.5156073 C68.4374955,17.4999836 68.9843697,16.6796719 70.078119,16.0546722 C71.1328055,15.4296725 72.4413977,15.1171731 74.0038965,15.1171731 C75.4882698,15.1171731 76.777331,15.5273289 77.8710803,16.3476407 C78.9648295,17.1288896 79.5117037,18.1249824 79.5117037,19.3359191 L85.5468542,19.3359191 C85.5468542,17.3046707 84.9218545,15.6445163 83.671856,14.3554551 C82.4609194,13.0663938 81.0156088,12.1093637 79.3359226,11.484364 C78.4765482,11.1328019 77.5781118,10.8788962 76.6406127,10.722646 C75.7031136,10.5663959 74.8242082,10.4882712 74.0038965,10.4882712 C73.144522,10.4882712 72.2460856,10.5663959 71.3085865,10.722646 C70.3710874,10.8788962 69.4531193,11.1132709 68.5546829,11.4257704 C66.9140595,11.9726445 65.4882799,12.832019 64.2773432,14.0038929 C63.0273447,15.1757668 62.402345,16.6796719 62.402345,18.5156073 C62.402345,20.117168 62.7734381,21.4062293 63.5156252,22.3827912 C64.2187496,23.359353 65.1367177,24.121071 66.2695288,24.6679452 C67.9882769,25.5273197 69.9218688,26.0937248 72.0703046,26.3671624 C74.2578022,26.6405999 76.0937385,27.0312239 77.5781118,27.5390362 C78.3984235,27.8124738 79.0624851,28.1835669 79.5702974,28.6523164 C80.039047,29.0820032 80.2734217,29.6679402 80.2734217,30.4101272 C80.2734217,31.5429384 79.6288911,32.3827819 78.3398298,32.9296561 C77.0117058,33.4765303 75.5663953,33.7499678 74.0038965,33.7499678 C72.5585851,33.7499678 71.1913992,33.4569993 69.9023379,32.8710624 C68.6132766,32.3241882 67.949215,31.40622 67.9101523,30.1171588 L61.9335955,30.1171588 C61.9335955,31.1718453 62.1289075,32.1288753 62.5195324,32.9882498 C62.8710946,33.8085615 63.3789069,34.5312168 64.0429685,35.1562165 C65.2539051,36.2890276 66.7773412,37.1093393 68.6132766,37.6171516 C70.4492121,38.1249639 72.2460856,38.3788696 74.0038965,38.3788696 Z M101.835929,38.3788696 C105.859363,38.3788696 108.730454,37.3827768 110.449202,35.3905912 C110.739028,35.0621211 111.004961,34.7225019 111.247001,34.3717319 C111.294913,34.8976437 111.361012,35.3544503 111.445295,35.7421534 C111.640607,36.6796525 111.796857,37.3632459 111.914044,37.7929327 L117.773414,37.7929327 L117.773414,37.3241832 L117.363258,36.0351219 C117.128883,35.1757474 117.011696,33.8085615 117.011696,31.9335633 L117.011696,21.6210731 C117.011696,17.7148266 115.937478,14.9023292 113.789043,13.1835812 C111.640607,11.503895 108.613267,10.6640523 104.70702,10.6640523 C100.761712,10.6640523 97.7343704,11.503895 95.6249974,13.1835812 C93.4765616,14.9023292 92.4023442,16.9531085 92.4023442,19.3359191 L98.378901,19.3359191 C98.378901,18.007795 99.0234316,17.0312341 100.312493,16.4062344 C101.562491,15.7812347 103.027334,15.4687352 104.70702,15.4687352 C106.386706,15.4687352 107.871079,15.8007665 109.160141,16.464828 C110.488265,17.1679524 111.152326,18.5351383 111.152326,20.5663866 L111.152326,22.2070101 L103.945302,22.2070101 C99.7656187,22.2070101 96.6210902,22.8515407 94.5117172,24.140602 C92.4023442,25.4296632 91.3476577,27.3827861 91.3476577,29.9999714 C91.3476577,32.5780939 92.2656259,34.6288732 94.1015613,36.1523093 C95.9765595,37.6366826 98.5546821,38.3788696 101.835929,38.3788696 Z M103.359365,34.2187174 C101.367179,34.2187174 99.8632743,33.8671552 98.8476506,33.1640309 C97.8320268,32.4609065 97.3242145,31.5038765 97.3242145,30.2929399 C97.3242145,28.8866912 97.8906205,27.8320047 99.0234316,27.1288804 C100.117181,26.4648188 101.757804,26.1132566 103.945302,26.0741939 C107.153151,26.1033557 109.555466,26.1216332 111.152244,26.1290235 C111.143263,29.1076514 110.401104,31.1987478 108.925766,32.4023128 C107.40233,33.6132495 105.546863,34.2187174 103.359365,34.2187174 Z M131.249994,37.7929327 L131.249994,30.3517848 C132.846383,28.7557968 134.356191,27.246868 135.779418,25.8249981 C140.315445,31.6109681 143.45407,35.6002799 145.195294,37.7929327 L152.10935,37.7929327 C145.900783,29.9261767 141.728907,24.6671468 139.593722,22.015843 C144.659173,16.9595011 148.323237,13.3122895 150.585913,11.0742073 L143.378889,11.0742073 C138.607468,15.8692486 134.564503,19.9429766 131.249994,23.2953895 L131.249994,1.17187299 L125.390625,1.17187299 L125.390625,37.7929327 L131.249994,37.7929327 Z M162.558463,37.7929327 L162.558463,11.0742082 L156.699094,11.0742082 L156.699094,37.7929327 L162.558463,37.7929327 Z" id="misaki" fill="#FFFFFF"></path>
                <path d="M159.628779,7.5 C160.839715,7.5 161.796745,7.14843068 162.49987,6.44530635 C163.202994,5.74218202 163.554556,4.84374568 163.554556,3.74999642 C163.554556,2.65624717 163.202994,1.75781082 162.49987,1.05468649 C161.796745,0.351562165 160.839715,0 159.628779,0 C158.456905,0 157.519406,0.351562165 156.816281,1.05468649 C156.113157,1.75781082 155.761595,2.65624717 155.761595,3.74999642 C155.761595,4.84374568 156.113157,5.74218202 156.816281,6.44530635 C157.519406,7.14843068 158.456905,7.5 159.628779,7.5 Z" id="Path" fill="#BEBEBE"></path>
                <path d="M52.4999973,7.5 C53.710934,7.5 54.667964,7.14843068 55.3710883,6.44530635 C56.0742127,5.74218202 56.4257748,4.84374568 56.4257748,3.74999642 C56.4257748,2.65624717 56.0742127,1.75781082 55.3710883,1.05468649 C54.667964,0.351562165 53.710934,0 52.4999973,0 C51.3281234,0 50.3906243,0.351562165 49.6875,1.05468649 C48.9843757,1.75781082 48.6328135,2.65624717 48.6328135,3.74999642 C48.6328135,4.84374568 48.9843757,5.74218202 49.6875,6.44530635 C50.3906243,7.14843068 51.3281234,7.5 52.4999973,7.5 Z" id="Path" fill="#FF0D0D"></path>
            </g>
        </g>
    </g>
</svg>